<?xml version="1.0" standalone="no"?>
<!DOCTYPE svg PUBLIC "-//W3C//DTD SVG 20010904//EN"
 "http://www.w3.org/TR/2001/REC-SVG-20010904/DTD/svg10.dtd">
<svg version="1.0" xmlns="http://www.w3.org/2000/svg"
 width="160.000000pt" height="160.000000pt" viewBox="0 0 160.000000 160.000000"
 preserveAspectRatio="xMidYMid meet">

<g transform="translate(0.000000,160.000000) scale(0.100000,-0.100000)"
fill="#000000" stroke="none">
<path d="M645 1483 c-134 -28 -289 -120 -369 -217 -46 -57 -46 -79 1 -111 47
-32 51 -31 55 4 l3 30 72 -52 c40 -29 73 -55 73 -59 0 -4 -10 -8 -22 -10 -18
-2 2 -17 81 -62 85 -48 107 -57 120 -47 80 58 162 65 246 21 l58 -30 93 52
c52 29 94 56 94 60 0 4 -10 8 -22 10 -19 3 -11 12 52 59 l75 56 3 -28 c4 -36
17 -36 65 -4 47 32 47 55 2 111 -78 95 -242 192 -373 220 -85 18 -217 17 -307
-3z m190 -134 c17 -36 17 -47 6 -101 -14 -67 -4 -91 33 -86 15 2 23 14 29 45
10 50 37 80 37 40 0 -14 9 -46 20 -72 26 -60 25 -89 -2 -115 -29 -27 -96 -27
-131 0 l-26 20 -33 -20 c-46 -28 -103 -26 -133 5 -29 29 -30 34 -9 83 9 20 22
57 29 82 l13 45 16 -37 c9 -21 16 -47 16 -58 0 -17 5 -21 28 -18 l27 3 -3 81
c-3 68 0 89 18 124 24 48 36 44 65 -21z"/>
<path d="M778 1344 c-13 -32 -14 -50 -6 -91 14 -68 5 -101 -29 -109 -34 -9
-57 6 -63 41 -5 27 -6 26 -30 -24 -27 -58 -23 -76 23 -99 21 -10 32 -10 59 1
18 8 39 21 47 30 12 15 16 14 45 -7 45 -34 71 -39 106 -21 35 18 38 39 13 104
l-17 44 -11 -34 c-10 -30 -16 -34 -46 -34 -46 0 -59 27 -46 100 10 60 6 89
-16 119 -13 18 -15 16 -29 -20z"/>
<path d="M154 1064 c-27 -41 -54 -172 -54 -265 0 -326 230 -613 549 -683 99
-22 101 -20 101 110 l0 104 -29 0 c-37 0 -53 20 -49 61 3 36 28 53 28 20 0
-28 21 -37 37 -16 8 13 13 49 13 106 l0 88 -51 27 c-34 19 -59 42 -76 71 -20
35 -30 43 -53 43 -18 0 -35 -8 -44 -22 -19 -27 -6 -44 22 -29 30 16 42 14 42
-9 0 -43 -88 -52 -110 -11 -21 40 31 111 82 111 18 0 28 5 28 15 0 12 -15 15
-75 15 l-75 0 2 -207 c3 -188 5 -208 20 -211 11 -2 22 6 29 22 14 29 44 35 53
10 4 -10 -6 -28 -28 -50 -29 -29 -41 -34 -81 -34 -38 0 -52 5 -76 29 l-29 29
0 311 0 310 -69 41 c-38 22 -74 40 -80 40 -6 0 -18 -11 -27 -26z"/>
<path d="M1335 1047 l-70 -42 -2 -290 c-1 -160 -2 -298 -3 -308 0 -33 -54 -77
-95 -77 -64 0 -126 48 -111 86 8 22 40 17 51 -9 6 -12 17 -22 25 -22 13 0 15
31 18 208 l2 207 -70 0 c-56 0 -70 -3 -70 -15 0 -9 9 -15 25 -15 31 0 72 -38
81 -76 6 -21 2 -31 -16 -46 -38 -30 -100 -17 -100 22 0 23 12 25 42 9 31 -17
47 5 23 31 -30 33 -60 26 -88 -23 -17 -29 -42 -52 -77 -71 l-51 -28 3 -101 c2
-83 6 -102 18 -102 8 0 16 10 18 23 4 27 18 28 32 2 16 -30 -8 -74 -43 -78
l-27 -3 0 -103 c0 -123 5 -130 76 -117 277 53 503 271 561 544 34 159 -11 438
-70 437 -6 0 -43 -20 -82 -43z"/>
<path d="M440 905 l0 -35 68 0 67 1 -60 34 c-33 19 -63 35 -67 35 -5 0 -8 -16
-8 -35z"/>
<path d="M1085 905 l-60 -35 63 0 62 0 0 35 c0 19 -1 35 -2 35 -2 0 -30 -16
-63 -35z"/>
</g>
</svg>
