<?xml version="1.0" encoding="UTF-8"?>
<!DOCTYPE svg PUBLIC "-//W3C//DTD SVG 1.1//EN" "http://www.w3.org/Graphics/SVG/1.1/DTD/svg11.dtd">
<svg xmlns="http://www.w3.org/2000/svg" version="1.1" width="160px" height="160px" style="shape-rendering:geometricPrecision; text-rendering:geometricPrecision; image-rendering:optimizeQuality; fill-rule:evenodd; clip-rule:evenodd" xmlns:xlink="http://www.w3.org/1999/xlink">
<g><path style="opacity:0.973" fill="#f7e043" d="M 64.5,-0.5 C 74.5,-0.5 84.5,-0.5 94.5,-0.5C 129.176,8.1755 150.842,29.8422 159.5,64.5C 159.5,74.5 159.5,84.5 159.5,94.5C 150.825,129.176 129.158,150.842 94.5,159.5C 84.5,159.5 74.5,159.5 64.5,159.5C 29.8333,150.833 8.16667,129.167 -0.5,94.5C -0.5,84.5 -0.5,74.5 -0.5,64.5C 8.17052,29.8295 29.8372,8.16282 64.5,-0.5 Z"/></g>
<g><path style="opacity:1" fill="#133799" d="M 125.5,47.5 C 125.799,45.396 125.466,43.396 124.5,41.5C 119.654,44.7567 114.988,48.2567 110.5,52C 112.437,52.1216 113.77,52.955 114.5,54.5C 108.062,57.553 101.729,60.8863 95.5,64.5C 84.9465,56.5198 74.4465,56.5198 64,64.5C 57.076,60.9554 50.2426,57.2887 43.5,53.5C 44.9516,52.6981 46.6183,52.1981 48.5,52C 43.3333,48.1667 38.1667,44.3333 33,40.5C 32.5045,42.4727 32.3379,44.4727 32.5,46.5C 29.3111,45.4863 26.4778,43.8196 24,41.5C 23.3333,39.8333 23.3333,38.1667 24,36.5C 45.6998,11.0857 72.5331,3.5857 104.5,14C 116.933,18.4627 127.1,25.9627 135,36.5C 135.896,39.025 135.396,41.1917 133.5,43C 130.968,44.7653 128.301,46.2653 125.5,47.5 Z"/></g>
<g><path style="opacity:1" fill="#dbd2db" d="M 78.5,18.5 C 81.0507,20.5777 82.884,23.2444 84,26.5C 83.924,31.5348 83.5907,36.5348 83,41.5C 84.7889,43.229 86.9556,43.8957 89.5,43.5C 88.9805,39.2436 90.1472,35.5769 93,32.5C 94.2042,37.9108 95.7042,43.2441 97.5,48.5C 95.6634,55.1454 91.33,57.3121 84.5,55C 82.6951,54.028 81.0284,52.8613 79.5,51.5C 74.6649,55.6041 69.3315,56.4374 63.5,54C 61.8481,52.53 60.8481,50.6967 60.5,48.5C 63.1607,43.4989 64.994,38.1655 66,32.5C 68.8543,35.6145 70.021,39.2811 69.5,43.5C 71.4672,43.7394 73.3005,43.4061 75,42.5C 74.9269,36.8376 74.9269,31.171 75,25.5C 76.1799,23.1401 77.3466,20.8068 78.5,18.5 Z"/></g>
<g><path style="opacity:1" fill="#dc2f20" d="M 78.5,21.5 C 79.8846,22.5736 81.0513,23.9069 82,25.5C 81.8681,31.4926 81.8681,37.4926 82,43.5C 84.1529,45.4439 86.6529,45.9439 89.5,45C 90.0706,42.3892 90.9039,39.8892 92,37.5C 94.4694,41.8942 95.4694,46.5609 95,51.5C 92.6833,54.0965 89.85,54.9299 86.5,54C 83.735,52.8706 81.235,51.3706 79,49.5C 76.0882,51.9559 72.7549,53.6226 69,54.5C 64.153,53.3306 62.153,50.3306 63,45.5C 64.0804,43.0038 65.4138,40.6705 67,38.5C 67.4115,45.5413 70.5782,47.208 76.5,43.5C 77.6856,38.7752 77.3523,34.1086 75.5,29.5C 76.5103,26.8172 77.5103,24.1505 78.5,21.5 Z"/></g>
<g><path style="opacity:1" fill="#fafafa" d="M 43.5,53.5 C 43.5,57.5 43.5,61.5 43.5,65.5C 43.5,67.8333 43.5,70.1667 43.5,72.5C 47.8333,72.5 52.1667,72.5 56.5,72.5C 71.8333,72.5 87.1667,72.5 102.5,72.5C 106.5,72.5 110.5,72.5 114.5,72.5C 114.5,70.1667 114.5,67.8333 114.5,65.5C 114.5,61.8333 114.5,58.1667 114.5,54.5C 113.77,52.955 112.437,52.1216 110.5,52C 114.988,48.2567 119.654,44.7567 124.5,41.5C 125.466,43.396 125.799,45.396 125.5,47.5C 125.5,51.1667 125.5,54.8333 125.5,58.5C 125.667,79.1694 125.5,99.836 125,120.5C 121.723,126.109 116.89,127.942 110.5,126C 106.138,124.264 104.471,121.264 105.5,117C 106.793,116.51 108.127,116.343 109.5,116.5C 109.478,119.998 110.978,121.331 114,120.5C 114.5,106.837 114.667,93.1707 114.5,79.5C 109.833,79.5 105.167,79.5 100.5,79.5C 86.5,79.5 72.5,79.5 58.5,79.5C 53.5,79.5 48.5,79.5 43.5,79.5C 43.3334,93.1707 43.5001,106.837 44,120.5C 45.0495,121.517 46.2161,121.684 47.5,121C 47.926,117.408 49.926,115.908 53.5,116.5C 53.701,121.474 51.3677,124.64 46.5,126C 39.9252,127.962 35.4252,125.795 33,119.5C 32.8217,98.7604 32.3217,78.0938 31.5,57.5C 32.4816,54.0381 32.815,50.3714 32.5,46.5C 32.3379,44.4727 32.5045,42.4727 33,40.5C 38.1667,44.3333 43.3333,48.1667 48.5,52C 46.6183,52.1981 44.9516,52.6981 43.5,53.5 Z"/></g>
<g><path style="opacity:1" fill="#133799" d="M 31.5,57.5 C 32.3217,78.0938 32.8217,98.7604 33,119.5C 35.4252,125.795 39.9252,127.962 46.5,126C 51.3677,124.64 53.701,121.474 53.5,116.5C 49.926,115.908 47.926,117.408 47.5,121C 46.2161,121.684 45.0495,121.517 44,120.5C 43.5001,106.837 43.3334,93.1707 43.5,79.5C 48.5,79.5 53.5,79.5 58.5,79.5C 58.5,80.5 58.5,81.5 58.5,82.5C 50.1877,82.3114 46.6877,86.3114 48,94.5C 51.3333,97.1667 54.6667,97.1667 58,94.5C 58.49,93.2068 58.6567,91.8734 58.5,90.5C 56.323,90.5861 54.323,91.2528 52.5,92.5C 51.1515,90.3886 51.4848,88.5553 53.5,87C 55.4727,86.5045 57.4727,86.3379 59.5,86.5C 59.5,87.1667 59.8333,87.5 60.5,87.5C 62.5038,94.0052 66.8371,98.0052 73.5,99.5C 73.8333,99.5 74.1667,99.5 74.5,99.5C 74.6663,106.175 74.4996,112.842 74,119.5C 73.1627,121.007 71.9961,121.507 70.5,121C 69.9103,119.491 69.2436,117.991 68.5,116.5C 65.955,119.516 65.955,122.683 68.5,126C 70.4727,126.495 72.4727,126.662 74.5,126.5C 74.6663,133.508 74.4996,140.508 74,147.5C 66.1724,149.009 58.6724,147.843 51.5,144C 18.7815,127.064 5.28146,100.231 11,63.5C 11.7394,59.6148 13.0728,55.9481 15,52.5C 15.7387,51.4258 16.7387,50.7591 18,50.5C 22.4593,52.9791 26.9593,55.3125 31.5,57.5 Z"/></g>
<g><path style="opacity:1" fill="#153799" d="M 84.5,126.5 C 89.0847,127.408 91.418,125.575 91.5,121C 90.3609,115.106 89.0276,115.106 87.5,121C 86.0024,121.585 85.0024,121.085 84.5,119.5C 84.2066,112.745 84.5399,106.078 85.5,99.5C 92.7087,97.897 97.3754,93.5636 99.5,86.5C 104.206,85.8811 106.873,87.8811 107.5,92.5C 104.833,91.8333 102.167,91.1667 99.5,90.5C 100.46,96.6394 103.793,98.1394 109.5,95C 112.036,90.9704 111.369,87.3037 107.5,84C 105.323,82.7978 102.989,82.2978 100.5,82.5C 100.5,81.5 100.5,80.5 100.5,79.5C 105.167,79.5 109.833,79.5 114.5,79.5C 114.667,93.1707 114.5,106.837 114,120.5C 110.978,121.331 109.478,119.998 109.5,116.5C 108.127,116.343 106.793,116.51 105.5,117C 104.471,121.264 106.138,124.264 110.5,126C 116.89,127.942 121.723,126.109 125,120.5C 125.5,99.836 125.667,79.1694 125.5,58.5C 130.707,55.9793 135.874,53.3126 141,50.5C 144.626,52.3208 146.626,55.3208 147,59.5C 154.962,97.7347 141.795,125.901 107.5,144C 103.49,145.34 99.4902,146.673 95.5,148C 91.9085,148.789 88.4085,148.622 85,147.5C 84.5004,140.508 84.3337,133.508 84.5,126.5 Z"/></g>
<g><path style="opacity:1" fill="#f6df45" d="M 43.5,53.5 C 50.2426,57.2887 57.076,60.9554 64,64.5C 74.4465,56.5198 84.9465,56.5198 95.5,64.5C 101.729,60.8863 108.062,57.553 114.5,54.5C 114.5,58.1667 114.5,61.8333 114.5,65.5C 110.465,67.8483 106.465,70.1816 102.5,72.5C 87.1667,72.5 71.8333,72.5 56.5,72.5C 52.6528,69.4074 48.3195,67.0741 43.5,65.5C 43.5,61.5 43.5,57.5 43.5,53.5 Z"/></g>
<g><path style="opacity:1" fill="#2c4196" d="M 43.5,65.5 C 48.3195,67.0741 52.6528,69.4074 56.5,72.5C 52.1667,72.5 47.8333,72.5 43.5,72.5C 43.5,70.1667 43.5,67.8333 43.5,65.5 Z"/></g>
<g><path style="opacity:1" fill="#173897" d="M 114.5,65.5 C 114.5,67.8333 114.5,70.1667 114.5,72.5C 110.5,72.5 106.5,72.5 102.5,72.5C 106.465,70.1816 110.465,67.8483 114.5,65.5 Z"/></g>
<g><path style="opacity:1" fill="#fae341" d="M 58.5,79.5 C 72.5,79.5 86.5,79.5 100.5,79.5C 100.5,80.5 100.5,81.5 100.5,82.5C 86.5,82.5 72.5,82.5 58.5,82.5C 58.5,81.5 58.5,80.5 58.5,79.5 Z"/></g>
<g><path style="opacity:1" fill="#f7f8fa" d="M 58.5,82.5 C 72.5,82.5 86.5,82.5 100.5,82.5C 102.989,82.2978 105.323,82.7978 107.5,84C 111.369,87.3037 112.036,90.9704 109.5,95C 103.793,98.1394 100.46,96.6394 99.5,90.5C 102.167,91.1667 104.833,91.8333 107.5,92.5C 106.873,87.8811 104.206,85.8811 99.5,86.5C 94.5,85.1667 89.5,85.1667 84.5,86.5C 83.1667,97.5 83.1667,108.5 84.5,119.5C 85.0024,121.085 86.0024,121.585 87.5,121C 89.0276,115.106 90.3609,115.106 91.5,121C 91.418,125.575 89.0847,127.408 84.5,126.5C 82.5372,125.04 80.7038,123.373 79,121.5C 77.2927,123.037 75.7927,124.704 74.5,126.5C 72.4727,126.662 70.4727,126.495 68.5,126C 65.955,122.683 65.955,119.516 68.5,116.5C 69.2436,117.991 69.9103,119.491 70.5,121C 71.9961,121.507 73.1627,121.007 74,119.5C 74.4996,112.842 74.6663,106.175 74.5,99.5C 74.5,94.8333 74.5,90.1667 74.5,85.5C 69.3054,85.1795 64.3054,85.5128 59.5,86.5C 57.4727,86.3379 55.4727,86.5045 53.5,87C 51.4848,88.5553 51.1515,90.3886 52.5,92.5C 54.323,91.2528 56.323,90.5861 58.5,90.5C 58.6567,91.8734 58.49,93.2068 58,94.5C 54.6667,97.1667 51.3333,97.1667 48,94.5C 46.6877,86.3114 50.1877,82.3114 58.5,82.5 Z"/></g>
<g><path style="opacity:1" fill="#f9ec97" d="M 74.5,99.5 C 74.1667,99.5 73.8333,99.5 73.5,99.5C 73.5,95.1667 73.5,90.8333 73.5,86.5C 68.9677,86.1818 64.6344,86.5151 60.5,87.5C 59.8333,87.5 59.5,87.1667 59.5,86.5C 64.3054,85.5128 69.3054,85.1795 74.5,85.5C 74.5,90.1667 74.5,94.8333 74.5,99.5 Z"/></g>
<g><path style="opacity:1" fill="#f5df44" d="M 73.5,99.5 C 66.8371,98.0052 62.5038,94.0052 60.5,87.5C 64.6344,86.5151 68.9677,86.1818 73.5,86.5C 73.5,90.8333 73.5,95.1667 73.5,99.5 Z"/></g>
<g><path style="opacity:1" fill="#f8e14d" d="M 99.5,86.5 C 97.3754,93.5636 92.7087,97.897 85.5,99.5C 84.5151,95.3656 84.1818,91.0323 84.5,86.5C 89.5,85.1667 94.5,85.1667 99.5,86.5 Z"/></g>
<g><path style="opacity:1" fill="#f9f0b2" d="M 84.5,86.5 C 84.1818,91.0323 84.5151,95.3656 85.5,99.5C 84.5399,106.078 84.2066,112.745 84.5,119.5C 83.1667,108.5 83.1667,97.5 84.5,86.5 Z"/></g>
</svg>
