<svg class="w-8 h-8 fill-none" viewBox="0 0 32 32" xmlns="http://www.w3.org/2000/svg"><mask id="mask0_182_1756" style="mask-type:alpha" maskUnits="userSpaceOnUse" x="7" y="3" width="24" height="26"><path d="M30.0484 14.4004C31.3172 15.0986 31.3172 16.9014 30.0484 17.5996L9.75627 28.7659C8.52052 29.4459 7 28.5634 7 27.1663L7 4.83374C7 3.43657 8.52052 2.55415 9.75627 3.23415L30.0484 14.4004Z" fill="#C4C4C4"></path></mask><g mask="url(#mask0_182_1756)"><path d="M7.63473 28.5466L20.2923 15.8179L7.84319 3.29883C7.34653 3.61721 7 4.1669 7 4.8339V27.1664C7 27.7355 7.25223 28.2191 7.63473 28.5466Z" fill="url(#paint0_linear_182_1756)"></path><path d="M30.0484 14.4003C31.3172 15.0985 31.3172 16.9012 30.0484 17.5994L24.9291 20.4165L20.2924 15.8175L24.6926 11.4531L30.0484 14.4003Z" fill="url(#paint1_linear_182_1756)"></path><path d="M24.929 20.4168L20.2923 15.8179L7.63464 28.5466C8.19127 29.0232 9.02377 29.1691 9.75623 28.766L24.929 20.4168Z" fill="url(#paint2_linear_182_1756)"></path><path d="M7.84326 3.29865L20.2924 15.8177L24.6927 11.4533L9.75631 3.23415C9.11052 2.87878 8.38695 2.95013 7.84326 3.29865Z" fill="url(#paint3_linear_182_1756)"></path></g><defs><linearGradient id="paint0_linear_182_1756" x1="15.6769" y1="10.874" x2="7.07106" y2="19.5506" gradientUnits="userSpaceOnUse"><stop stop-color="#00C3FF"></stop><stop offset="1" stop-color="#1BE2FA"></stop></linearGradient><linearGradient id="paint1_linear_182_1756" x1="20.2924" y1="15.8176" x2="31.7385" y2="15.8176" gradientUnits="userSpaceOnUse"><stop stop-color="#FFCE00"></stop><stop offset="1" stop-color="#FFEA00"></stop></linearGradient><linearGradient id="paint2_linear_182_1756" x1="7.3692" y1="30.1004" x2="22.5949" y2="17.8937" gradientUnits="userSpaceOnUse"><stop stop-color="#DE2453"></stop><stop offset="1" stop-color="#FE3944"></stop></linearGradient><linearGradient id="paint3_linear_182_1756" x1="8.10774" y1="1.90137" x2="22.5975" y2="13.7365" gradientUnits="userSpaceOnUse"><stop stop-color="#11D574"></stop><stop offset="1" stop-color="#01F176"></stop></linearGradient></defs></svg>