<svg width="41" height="40" viewBox="0 0 41 40" fill="none" xmlns="http://www.w3.org/2000/svg">
<g clip-path="url(#clip0_5901_8663)">
<path d="M34.2158 7.15161C30.4983 3.4145 25.6785 1.45278 20.8038 1.26762V7.47153C24.0971 7.652 27.3379 9.00786 29.8539 11.5368C35.2739 16.986 35.2739 25.8208 29.8539 31.27C29.1046 32.0235 28.29 32.6727 27.43 33.2176L23.3117 29.0774L25.492 26.8848C28.5044 23.8567 28.5033 18.9465 25.4909 15.9196C24.1763 14.5989 22.5134 13.8524 20.8038 13.6825V18.3981C21.3329 18.534 21.834 18.8129 22.2442 19.2348C23.4305 20.4536 23.3921 22.4176 22.1929 23.6235L20.0394 25.7879L17.887 23.6235C17.4721 23.2063 17.1971 22.7 17.0619 22.1645H12.3667C12.5334 23.8719 13.2629 25.5336 14.5529 26.8485L16.7694 29.0762L24.794 37.1434C26.683 39.043 29.671 39.2903 31.8303 37.7083C31.8432 37.6989 31.856 37.6883 31.87 37.679C32.6904 37.0743 33.4758 36.4004 34.2181 35.654C42.0469 27.7825 42.0469 15.0219 34.2181 7.15044L34.2158 7.15161ZM12.6499 33.2176C11.7887 32.6727 10.9753 32.0235 10.226 31.27C7.70883 28.7387 6.36053 25.4786 6.18223 22.1657H0.00705719C0.190017 27.0665 2.14314 31.9133 5.86525 35.6551C6.60758 36.4004 7.39186 37.0754 8.21226 37.6801C8.22625 37.6895 8.23907 37.7 8.25188 37.7094C10.4113 39.2915 13.3981 39.0442 15.2882 37.1446L18.9509 33.4625L15.6798 30.1743L12.6522 33.2188L12.6499 33.2176Z" fill="white"/>
<path d="M19.262 1.25V7.45859C12.2105 7.84648 6.5609 13.5266 6.17517 20.6152H0C0.395052 10.1 8.80302 1.64727 19.262 1.25Z" fill="white"/>
<path d="M19.262 13.6766V18.3875C18.1782 18.6676 17.3252 19.5254 17.0467 20.6152H12.3608C12.7221 16.9531 15.6191 14.0398 19.262 13.6766Z" fill="white"/>
</g>
<defs>
<clipPath id="clip0_5901_8663">
<rect width="40.0879" height="40" fill="white"/>
</clipPath>
</defs>
</svg>
