<?xml version="1.0" encoding="UTF-8"?>
<!DOCTYPE svg PUBLIC "-//W3C//DTD SVG 1.1//EN" "http://www.w3.org/Graphics/SVG/1.1/DTD/svg11.dtd">
<svg xmlns="http://www.w3.org/2000/svg" version="1.1" width="3543px" height="1772px" style="shape-rendering:geometricPrecision; text-rendering:geometricPrecision; image-rendering:optimizeQuality; fill-rule:evenodd; clip-rule:evenodd" xmlns:xlink="http://www.w3.org/1999/xlink">
<g><path style="opacity:0.99" fill="#fefffe" d="M 1025.5,515.5 C 1036.14,521.488 1046.81,527.488 1057.5,533.5C 1058.67,679.166 1058.83,824.832 1058,970.5C 1004.58,999.794 951.08,1028.96 897.5,1058C 894.029,1060.07 890.362,1061.57 886.5,1062.5C 886.667,961.499 886.5,860.499 886,759.5C 832.213,732.69 778.379,706.023 724.5,679.5C 777.008,651.412 829.675,623.579 882.5,596C 930.229,569.139 977.896,542.306 1025.5,515.5 Z"/></g>
<g><path style="opacity:0.979" fill="#fefffe" d="M 1258.5,515.5 C 1308.86,515.047 1359.19,515.547 1409.5,517C 1448.56,522.399 1473.72,543.899 1485,581.5C 1491.71,612.697 1483.54,639.197 1460.5,661C 1457.67,663.248 1454.67,665.248 1451.5,667C 1491.93,687.014 1508.76,719.514 1502,764.5C 1493.23,804.933 1468.4,828.766 1427.5,836C 1420.2,837.02 1412.87,837.687 1405.5,838C 1356.5,838.5 1307.5,838.667 1258.5,838.5C 1258.5,730.833 1258.5,623.167 1258.5,515.5 Z M 1301.5,554.5 C 1334.5,554.333 1367.5,554.5 1400.5,555C 1432.14,561.305 1445.97,580.472 1442,612.5C 1435.5,632.856 1421.67,645.023 1400.5,649C 1367.5,649.5 1334.5,649.667 1301.5,649.5C 1301.5,617.833 1301.5,586.167 1301.5,554.5 Z M 1301.5,688.5 C 1337.17,688.333 1372.83,688.5 1408.5,689C 1440.07,694.733 1457.07,713.566 1459.5,745.5C 1458.01,770.497 1445.35,786.997 1421.5,795C 1413.67,797.366 1405.67,798.699 1397.5,799C 1365.5,799.5 1333.5,799.667 1301.5,799.5C 1301.5,762.5 1301.5,725.5 1301.5,688.5 Z"/></g>
<g><path style="opacity:0.964" fill="#fefffe" d="M 1572.5,515.5 C 1573.66,530.661 1573.83,545.994 1573,561.5C 1558.84,568.913 1544.84,576.579 1531,584.5C 1530.33,569.167 1530.33,553.833 1531,538.5C 1544.81,530.679 1558.65,523.012 1572.5,515.5 Z"/></g>
<g><path style="opacity:0.975" fill="#fefffe" d="M 1734.5,589.5 C 1788.89,587.43 1823.39,612.43 1838,664.5C 1839.77,672.428 1841.1,680.428 1842,688.5C 1842.5,738.499 1842.67,788.499 1842.5,838.5C 1828.17,838.5 1813.83,838.5 1799.5,838.5C 1799.67,793.499 1799.5,748.499 1799,703.5C 1798.17,683.69 1792.17,665.69 1781,649.5C 1767.76,635.025 1751.26,628.025 1731.5,628.5C 1697.08,628.762 1675.25,645.429 1666,678.5C 1664.74,683.448 1663.74,688.448 1663,693.5C 1662.5,741.832 1662.33,790.166 1662.5,838.5C 1647.83,838.5 1633.17,838.5 1618.5,838.5C 1618.5,757.833 1618.5,677.167 1618.5,596.5C 1631.5,596.5 1644.5,596.5 1657.5,596.5C 1657.33,606.172 1657.5,615.839 1658,625.5C 1671.99,608.538 1689.83,597.704 1711.5,593C 1719.26,591.447 1726.92,590.28 1734.5,589.5 Z"/></g>
<g><path style="opacity:0.977" fill="#fefffe" d="M 1964.5,589.5 C 1989.65,587.571 2013.99,591.071 2037.5,600C 2068.01,615.15 2083.18,639.983 2083,674.5C 2083.5,729.166 2083.67,783.832 2083.5,838.5C 2070.83,838.5 2058.17,838.5 2045.5,838.5C 2045.67,832.824 2045.5,827.157 2045,821.5C 2043.79,817.554 2041.12,815.22 2037,814.5C 2030.18,819.319 2023.34,824.152 2016.5,829C 1984.61,845.321 1951.28,848.987 1916.5,840C 1875.02,824.124 1858.85,794.291 1868,750.5C 1875.72,729.781 1889.88,715.281 1910.5,707C 1928.98,700.297 1947.98,695.63 1967.5,693C 1987.13,690.053 2006.8,687.386 2026.5,685C 2036.1,681.966 2040.27,675.466 2039,665.5C 2033.74,644.243 2020.24,632.077 1998.5,629C 1974.63,624.357 1952.63,628.691 1932.5,642C 1927.2,647.128 1922.87,652.962 1919.5,659.5C 1905.4,658.819 1891.4,656.819 1877.5,653.5C 1877.17,653 1876.83,652.5 1876.5,652C 1888.28,619.889 1910.95,600.222 1944.5,593C 1951.29,591.703 1957.96,590.536 1964.5,589.5 Z M 2032.5,718.5 C 2035.17,718.5 2037.83,718.5 2040.5,718.5C 2040.45,784.719 2007.45,814.885 1941.5,809C 1916.67,803.137 1905.83,787.637 1909,762.5C 1911.54,754.954 1916.04,748.787 1922.5,744C 1936.97,735.287 1952.64,729.954 1969.5,728C 1990.61,724.581 2011.61,721.414 2032.5,718.5 Z"/></g>
<g><path style="opacity:0.974" fill="#fefffe" d="M 1530.5,596.5 C 1544.83,596.5 1559.17,596.5 1573.5,596.5C 1573.5,677.167 1573.5,757.833 1573.5,838.5C 1559.17,838.5 1544.83,838.5 1530.5,838.5C 1530.5,757.833 1530.5,677.167 1530.5,596.5 Z"/></g>
<g><path style="opacity:0.977" fill="#fefffe" d="M 2119.5,596.5 C 2132.5,596.5 2145.5,596.5 2158.5,596.5C 2158.33,608.171 2158.5,619.838 2159,631.5C 2171.24,613.451 2188.07,601.951 2209.5,597C 2235.17,596.167 2260.84,596.334 2286.5,597.5C 2312.41,659.646 2338.58,721.646 2365,783.5C 2389.33,721.5 2413.67,659.5 2438,597.5C 2452.42,596.51 2466.92,596.176 2481.5,596.5C 2444.23,691.29 2406.57,785.957 2368.5,880.5C 2354.52,881.499 2340.52,881.833 2326.5,881.5C 2331.36,868.084 2336.53,854.751 2342,841.5C 2343.15,839.246 2343.48,836.913 2343,834.5C 2314.02,767.376 2285.19,700.21 2256.5,633C 2197.56,625.532 2166.39,651.366 2163,710.5C 2162.5,753.165 2162.33,795.832 2162.5,838.5C 2148.17,838.5 2133.83,838.5 2119.5,838.5C 2119.5,757.833 2119.5,677.167 2119.5,596.5 Z"/></g>
<g><path style="opacity:0.99" fill="#fefffe" d="M 682.5,701.5 C 683.5,701.5 684.5,701.5 685.5,701.5C 685.333,802.501 685.5,903.501 686,1004.5C 739.787,1031.31 793.621,1057.98 847.5,1084.5C 792.625,1113.87 737.625,1143.03 682.5,1172C 637.039,1197.3 591.705,1222.8 546.5,1248.5C 535.747,1242.37 524.914,1236.37 514,1230.5C 513.333,1084.83 513.333,939.167 514,793.5C 570.309,762.932 626.475,732.265 682.5,701.5 Z"/></g>
<g><path style="opacity:0.976" fill="#fefffe" d="M 1353.5,882.5 C 1388.56,878.897 1421.56,885.397 1452.5,902C 1479.89,919.232 1496.89,943.732 1503.5,975.5C 1516.54,973.827 1529.54,971.827 1542.5,969.5C 1543.77,969.57 1544.94,969.903 1546,970.5C 1571.47,1032.76 1597.47,1094.76 1624,1156.5C 1648.33,1094.17 1672.67,1031.83 1697,969.5C 1711.42,968.51 1725.92,968.176 1740.5,968.5C 1703.72,1063.99 1666.06,1159.15 1627.5,1254C 1613.49,1254.83 1599.49,1254.67 1585.5,1253.5C 1592.12,1238.45 1597.62,1223.12 1602,1207.5C 1569.14,1131.25 1536.47,1054.92 1504,978.5C 1503.11,977.919 1502.11,977.585 1501,977.5C 1486.81,979.788 1472.65,982.122 1458.5,984.5C 1452.4,956.228 1435.73,937.061 1408.5,927C 1378.78,916.784 1350.12,919.117 1322.5,934C 1313.04,940.451 1306.21,948.951 1302,959.5C 1297.43,979.196 1303.93,994.03 1321.5,1004C 1331.5,1008.83 1341.83,1012.83 1352.5,1016C 1386.14,1024.66 1419.47,1034.32 1452.5,1045C 1497.05,1064.26 1513.88,1097.76 1503,1145.5C 1493.02,1174.82 1473.52,1194.98 1444.5,1206C 1401.94,1220.93 1359.28,1221.27 1316.5,1207C 1279.99,1193.16 1255.82,1167.66 1244,1130.5C 1243.17,1127.21 1242.67,1123.87 1242.5,1120.5C 1256.36,1118.77 1270.2,1116.77 1284,1114.5C 1284.83,1114.83 1285.67,1115.17 1286.5,1115.5C 1295.45,1142.95 1313.45,1161.78 1340.5,1172C 1368.62,1180.95 1396.62,1180.62 1424.5,1171C 1443.32,1163.85 1455.49,1150.69 1461,1131.5C 1463.9,1108.48 1454.74,1092.31 1433.5,1083C 1398.76,1071.86 1363.76,1061.53 1328.5,1052C 1303.57,1046.47 1283.07,1033.97 1267,1014.5C 1256.57,997.604 1252.9,979.27 1256,959.5C 1262.03,928.125 1279.87,906.291 1309.5,894C 1323.8,888.259 1338.47,884.425 1353.5,882.5 Z"/></g>
<g><path style="opacity:0.972" fill="#fefffe" d="M 1979.5,901.5 C 1993.83,901.5 2008.17,901.5 2022.5,901.5C 2022.5,923.833 2022.5,946.167 2022.5,968.5C 2048.17,968.5 2073.83,968.5 2099.5,968.5C 2099.5,979.833 2099.5,991.167 2099.5,1002.5C 2073.83,1002.5 2048.17,1002.5 2022.5,1002.5C 2022.33,1049.17 2022.5,1095.83 2023,1142.5C 2023.47,1158.28 2030.97,1169.11 2045.5,1175C 2063.42,1178.86 2081.42,1179.03 2099.5,1175.5C 2099.67,1187.17 2099.5,1198.84 2099,1210.5C 2077.3,1215.08 2055.47,1215.58 2033.5,1212C 2003.53,1206.36 1986.03,1188.53 1981,1158.5C 1980.67,1150.17 1980.33,1141.83 1980,1133.5C 1979.5,1056.17 1979.33,978.834 1979.5,901.5 Z"/></g>
<g><path style="opacity:0.975" fill="#fefffe" d="M 1829.5,962.5 C 1859.39,959.481 1887.72,964.648 1914.5,978C 1935.52,989.861 1948.19,1007.69 1952.5,1031.5C 1952.17,1032.17 1951.83,1032.83 1951.5,1033.5C 1937.5,1036.17 1923.5,1038.83 1909.5,1041.5C 1904.83,1022.66 1893.33,1009.99 1875,1003.5C 1853.29,996.363 1831.79,996.863 1810.5,1005C 1793.69,1013.43 1788.86,1026.27 1796,1043.5C 1800.67,1048.5 1806.17,1052.34 1812.5,1055C 1843.07,1064.31 1873.74,1073.31 1904.5,1082C 1947.97,1097.11 1962.47,1126.61 1948,1170.5C 1939.32,1188.18 1925.82,1200.68 1907.5,1208C 1870.95,1220.27 1834.29,1220.61 1797.5,1209C 1773.67,1200.84 1756.51,1185.34 1746,1162.5C 1743.57,1156.71 1742.07,1150.71 1741.5,1144.5C 1756.13,1142.22 1770.8,1140.22 1785.5,1138.5C 1788.44,1150.21 1794.78,1159.71 1804.5,1167C 1823.89,1178.74 1844.89,1183.07 1867.5,1180C 1881.69,1178.82 1893.52,1172.99 1903,1162.5C 1910.92,1150.63 1911.25,1138.63 1904,1126.5C 1901.26,1124.21 1898.42,1122.05 1895.5,1120C 1886.73,1116.08 1877.73,1112.74 1868.5,1110C 1841.33,1103.61 1814.67,1095.61 1788.5,1086C 1752.43,1070.83 1740.93,1044.67 1754,1007.5C 1764.79,987.333 1781.29,974.167 1803.5,968C 1812.19,965.613 1820.86,963.78 1829.5,962.5 Z"/></g>
<g><path style="opacity:0.977" fill="#fefffe" d="M 2217.5,962.5 C 2250.26,958.692 2280.26,965.859 2307.5,984C 2334.06,1006.96 2348.56,1036.12 2351,1071.5C 2351.5,1081.49 2351.67,1091.49 2351.5,1101.5C 2286.83,1101.5 2222.17,1101.5 2157.5,1101.5C 2162.26,1156.77 2192.26,1182.27 2247.5,1178C 2269.84,1174.96 2287.67,1164.46 2301,1146.5C 2313.4,1153.28 2325.56,1160.45 2337.5,1168C 2311.87,1201.31 2277.87,1217.81 2235.5,1217.5C 2174.17,1216.95 2134.34,1187.62 2116,1129.5C 2108.45,1095.77 2110.78,1062.77 2123,1030.5C 2142.11,990.549 2173.61,967.882 2217.5,962.5 Z M 2231.5,998.5 C 2263.52,996.581 2286.36,1009.91 2300,1038.5C 2303.37,1048.15 2305.87,1057.99 2307.5,1068C 2257.83,1068.5 2208.17,1068.67 2158.5,1068.5C 2164.05,1025.28 2188.38,1001.95 2231.5,998.5 Z"/></g>
<g><path style="opacity:0.982" fill="#fefffe" d="M 2472.5,962.5 C 2502.71,959.508 2528.21,968.841 2549,990.5C 2551.58,993.997 2553.92,997.664 2556,1001.5C 2571.93,978.272 2594.1,965.438 2622.5,963C 2651.62,959.595 2676.78,967.762 2698,987.5C 2710.13,1001.88 2716.8,1018.54 2718,1037.5C 2718.5,1095.17 2718.67,1152.83 2718.5,1210.5C 2704.17,1210.5 2689.83,1210.5 2675.5,1210.5C 2675.67,1155.5 2675.5,1100.5 2675,1045.5C 2671.5,1022.96 2659,1008.13 2637.5,1001C 2610.7,995.037 2589.54,1003.2 2574,1025.5C 2569.83,1033.67 2567.5,1042.33 2567,1051.5C 2566.5,1104.5 2566.33,1157.5 2566.5,1210.5C 2552.5,1210.5 2538.5,1210.5 2524.5,1210.5C 2524.67,1157.5 2524.5,1104.5 2524,1051.5C 2520.96,1018.46 2502.96,1001.13 2470,999.5C 2439.3,1000.53 2421.3,1016.2 2416,1046.5C 2415.5,1101.17 2415.33,1155.83 2415.5,1210.5C 2401.17,1210.5 2386.83,1210.5 2372.5,1210.5C 2372.5,1129.83 2372.5,1049.17 2372.5,968.5C 2385.17,968.5 2397.83,968.5 2410.5,968.5C 2410.33,976.507 2410.5,984.507 2411,992.5C 2427.83,974.836 2448.33,964.836 2472.5,962.5 Z"/></g>
<g><path style="opacity:0.975" fill="#fefffe" d="M 2829.5,962.5 C 2855.36,960.19 2880.36,963.69 2904.5,973C 2931.08,984.33 2947.08,1004.16 2952.5,1032.5C 2951.97,1033.19 2951.31,1033.69 2950.5,1034C 2936.6,1036.34 2922.76,1038.84 2909,1041.5C 2903.94,1020.78 2891.11,1007.61 2870.5,1002C 2850.94,996.784 2831.61,997.451 2812.5,1004C 2796.01,1011.15 2789.84,1023.32 2794,1040.5C 2796.03,1044.41 2798.87,1047.57 2802.5,1050C 2811.16,1054.5 2820.16,1058.16 2829.5,1061C 2848.46,1066.16 2867.46,1071.16 2886.5,1076C 2904.28,1080.73 2920.62,1088.39 2935.5,1099C 2947.52,1110.71 2953.52,1125.04 2953.5,1142C 2952.71,1173.11 2938.04,1194.78 2909.5,1207C 2870.51,1220.97 2831.51,1220.97 2792.5,1207C 2764.47,1195.48 2747.14,1174.98 2740.5,1145.5C 2755.03,1142.26 2769.7,1140.09 2784.5,1139C 2790.38,1156.55 2802.05,1168.55 2819.5,1175C 2841.85,1182.29 2864.18,1182.29 2886.5,1175C 2908.43,1163.87 2913.93,1147.37 2903,1125.5C 2893.47,1118.66 2882.97,1113.82 2871.5,1111C 2843.31,1104.37 2815.64,1096.04 2788.5,1086C 2753.3,1071.44 2741.47,1045.94 2753,1009.5C 2763.44,988.073 2780.27,974.24 2803.5,968C 2812.19,965.613 2820.86,963.78 2829.5,962.5 Z"/></g>
<g><path style="opacity:0.963" fill="#fefffe" d="M 3027.5,1148.5 C 3028.66,1163.66 3028.83,1178.99 3028,1194.5C 3013.84,1201.91 2999.84,1209.58 2986,1217.5C 2985.33,1202.17 2985.33,1186.83 2986,1171.5C 3000.14,1164.19 3013.97,1156.52 3027.5,1148.5 Z"/></g>
</svg>
