<svg width="178" height="20" viewBox="0 0 178 20" fill="none" xmlns="http://www.w3.org/2000/svg">
<g clip-path="url(#clip0_5901_8668)">
<path d="M20.4857 13.345C20.4857 14.2863 19.8785 14.925 18.9678 14.925H7.5316C6.68856 14.925 6.04751 14.2525 6.04751 13.345V0H0.10989V14.1512C0.10989 15.865 0.683203 17.2438 1.8637 18.3525C3.0442 19.4625 4.52829 20 6.38372 20H20.1809C22.0363 20 23.5204 19.4625 24.6683 18.3862C25.8488 17.2775 26.4221 15.865 26.4221 14.1512V0H20.4845V13.345H20.4857Z" fill="white"/>
<path d="M53.9561 9.445C55.4064 8.47 56.1152 7.26 56.1152 5.815V5.31125C56.1152 2.1175 53.5183 0 49.6381 0H29.8695V20H50.3456C54.3601 20 56.9908 17.7812 56.9908 14.42V13.9487C56.9908 11.9662 55.9784 10.4525 53.9549 9.445H53.9561ZM35.8071 5.075H48.8954C49.7385 5.075 50.1775 5.445 50.1775 6.15125V6.68875C50.1775 7.395 49.7385 7.76375 48.8954 7.76375H35.8071V5.075ZM51.0544 13.7475C51.0544 14.5213 50.5815 14.9237 49.6368 14.9237H35.8058V12.1H49.6368C50.5815 12.1 51.0544 12.47 51.0544 13.2425V13.7463V13.7475Z" fill="white"/>
<path d="M65.4287 13.345V6.65625C65.4287 5.74875 66.0697 5.07625 66.9128 5.07625H85.669V0H65.7661C63.9107 0 62.4266 0.5375 61.2461 1.6475C60.0656 2.75625 59.4923 4.135 59.4923 5.84875V14.1512C59.4923 15.865 60.0656 17.2438 61.2461 18.3525C62.4266 19.4625 63.9107 20 65.7661 20H85.9387V14.9237H66.9128C66.0697 14.9237 65.4287 14.2513 65.4287 13.3438V13.345Z" fill="white"/>
<path d="M147.232 7.16V6.58875C147.232 4.6725 146.591 3.12625 145.275 1.8825C143.959 0.63875 142.307 0 140.316 0H120.851V20H126.788V13.7475H136.065L140.957 20H147.67L142.339 13.3787C145.275 12.4712 147.231 10.085 147.231 7.16H147.232ZM141.294 7.19375C141.294 8.23625 140.619 8.84125 139.641 8.84125H126.788V5.07625H139.607C140.653 5.07625 141.294 5.74875 141.294 6.72375V7.19375Z" fill="white"/>
<path d="M176.246 1.6475C175.066 0.53875 173.582 0 171.76 0H150.204V20H171.76C173.582 20 175.066 19.4625 176.246 18.3525C177.427 17.2438 178 15.865 178 14.1512V5.84875C178 4.135 177.427 2.75625 176.246 1.6475ZM172.03 13.345C172.03 14.2863 171.423 14.925 170.512 14.925H156.141V5.07625H170.512C171.423 5.07625 172.03 5.715 172.03 6.65625V13.345Z" fill="white"/>
<path d="M100.22 0L87.5796 20H94.1871L96.4277 16.2862H109.815L112.084 20H118.692L106.051 0H100.219H100.22ZM99.071 11.9137L103.122 5.2275L107.173 11.9137H99.071Z" fill="white"/>
</g>
<defs>
<clipPath id="clip0_5901_8668">
<rect width="177.89" height="20" fill="white" transform="translate(0.10989)"/>
</clipPath>
</defs>
</svg>
