<svg width="228" height="40" viewBox="0 0 228 40" fill="none" xmlns="http://www.w3.org/2000/svg">
<g clip-path="url(#clip0_5901_8715)">
<path d="M34.2158 7.15162C30.4983 3.41451 25.6785 1.4528 20.8038 1.26764V7.47155C24.0971 7.65201 27.3379 9.00787 29.8539 11.5368C35.2739 16.986 35.2739 25.8208 29.8539 31.27C29.1046 32.0235 28.29 32.6727 27.43 33.2176L23.3117 29.0774L25.492 26.8848C28.5044 23.8567 28.5033 18.9465 25.4909 15.9196C24.1763 14.5989 22.5134 13.8524 20.8038 13.6825V18.3981C21.3329 18.534 21.834 18.813 22.2442 19.2348C23.4305 20.4536 23.3921 22.4176 22.1929 23.6235L20.0394 25.788L17.887 23.6235C17.4721 23.2063 17.1971 22.7001 17.0619 22.1645H12.3667C12.5334 23.8719 13.2629 25.5337 14.5529 26.8485L16.7694 29.0762L24.794 37.1434C26.683 39.043 29.671 39.2903 31.8303 37.7083C31.8432 37.6989 31.856 37.6883 31.87 37.679C32.6904 37.0743 33.4758 36.4005 34.2181 35.654C42.0469 27.7825 42.0469 15.0219 34.2181 7.15045L34.2158 7.15162ZM12.6499 33.2176C11.7887 32.6727 10.9753 32.0235 10.226 31.27C7.70883 28.7387 6.36053 25.4786 6.18223 22.1657H0.00705719C0.190017 27.0665 2.14314 31.9133 5.86525 35.6551C6.60758 36.4005 7.39186 37.0755 8.21226 37.6801C8.22625 37.6895 8.23907 37.7001 8.25188 37.7094C10.4113 39.2915 13.3981 39.0442 15.2882 37.1446L18.9509 33.4626L15.6798 30.1743L12.6522 33.2188L12.6499 33.2176Z" fill="#5F00DA"/>
<path d="M19.262 1.25V7.45859C12.2105 7.84648 6.5609 13.5266 6.17517 20.6152H0C0.395052 10.1 8.80302 1.64727 19.262 1.25Z" fill="#5F00DA"/>
<path d="M19.262 13.6766V18.3875C18.1782 18.6676 17.3252 19.5254 17.0467 20.6152H12.3608C12.7221 16.9531 15.6191 14.0399 19.262 13.6766Z" fill="#5F00DA"/>
</g>
<g clip-path="url(#clip1_5901_8715)">
<path d="M70.4857 23.345C70.4857 24.2863 69.8785 24.925 68.9678 24.925H57.5316C56.6886 24.925 56.0475 24.2525 56.0475 23.345V10H50.1099V24.1512C50.1099 25.865 50.6832 27.2438 51.8637 28.3525C53.0442 29.4625 54.5283 30 56.3837 30H70.1809C72.0363 30 73.5204 29.4625 74.6683 28.3862C75.8488 27.2775 76.4221 25.865 76.4221 24.1512V10H70.4845V23.345H70.4857Z" fill="#5F00DA"/>
<path d="M103.956 19.445C105.406 18.47 106.115 17.26 106.115 15.815V15.3113C106.115 12.1175 103.518 10 99.6381 10H79.8695V30H100.346C104.36 30 106.991 27.7812 106.991 24.42V23.9487C106.991 21.9662 105.978 20.4525 103.955 19.445H103.956ZM85.8071 15.075H98.8954C99.7385 15.075 100.178 15.445 100.178 16.1512V16.6887C100.178 17.395 99.7385 17.7638 98.8954 17.7638H85.8071V15.075ZM101.054 23.7475C101.054 24.5213 100.582 24.9237 99.6369 24.9237H85.8058V22.1H99.6369C100.582 22.1 101.054 22.47 101.054 23.2425V23.7463V23.7475Z" fill="#5F00DA"/>
<path d="M115.429 23.345V16.6562C115.429 15.7487 116.07 15.0763 116.913 15.0763H135.669V10H115.766C113.911 10 112.427 10.5375 111.246 11.6475C110.066 12.7562 109.492 14.135 109.492 15.8488V24.1512C109.492 25.865 110.066 27.2438 111.246 28.3525C112.427 29.4625 113.911 30 115.766 30H135.939V24.9237H116.913C116.07 24.9237 115.429 24.2513 115.429 23.3438V23.345Z" fill="#5F00DA"/>
<path d="M197.232 17.16V16.5887C197.232 14.6725 196.591 13.1263 195.275 11.8825C193.959 10.6388 192.307 10 190.316 10H170.851V30H176.788V23.7475H186.065L190.957 30H197.67L192.339 23.3787C195.275 22.4712 197.231 20.085 197.231 17.16H197.232ZM191.294 17.1937C191.294 18.2362 190.619 18.8413 189.641 18.8413H176.788V15.0763H189.607C190.653 15.0763 191.294 15.7488 191.294 16.7238V17.1937Z" fill="#5F00DA"/>
<path d="M226.246 11.6475C225.066 10.5388 223.582 10 221.76 10H200.204V30H221.76C223.582 30 225.066 29.4625 226.246 28.3525C227.427 27.2438 228 25.865 228 24.1512V15.8488C228 14.135 227.427 12.7562 226.246 11.6475ZM222.03 23.345C222.03 24.2863 221.423 24.925 220.512 24.925H206.141V15.0763H220.512C221.423 15.0763 222.03 15.715 222.03 16.6562V23.345Z" fill="#5F00DA"/>
<path d="M150.22 10L137.58 30H144.187L146.428 26.2862H159.815L162.084 30H168.692L156.051 10H150.219H150.22ZM149.071 21.9137L153.122 15.2275L157.173 21.9137H149.071Z" fill="#5F00DA"/>
</g>
<defs>
<clipPath id="clip0_5901_8715">
<rect width="40.0879" height="40" fill="white"/>
</clipPath>
<clipPath id="clip1_5901_8715">
<rect width="177.89" height="20" fill="white" transform="translate(50.1099 10)"/>
</clipPath>
</defs>
</svg>
